<?xml version="1.0" encoding="utf-8"?>
<!-- Generator: Adobe Illustrator 19.1.0, SVG Export Plug-In . SVG Version: 6.00 Build 0)  -->
<svg version="1.1" id="Layer_1" xmlns="http://www.w3.org/2000/svg" xmlns:xlink="http://www.w3.org/1999/xlink" x="0px" y="0px"
	 viewBox="0 0 1540 300" enable-background="new 0 0 1540 300" xml:space="preserve">
<path opacity="2.000000e-02" fill="#243038" d="M791.5,15c-6.1-6.1-14.3-9.5-23.1-9.5c-8.8,0-17,3.4-23.1,9.5l-112,112
	c-6.1,6.1-9.5,14.3-9.5,23.1c0,8.8,3.4,17,9.5,23.1l112,112c6.1,6.1,14.3,9.5,23.1,9.5c8.8,0,17-3.4,23.1-9.5l112-112
	c12.7-12.7,12.7-33.5,0-46.2L791.5,15z M901.4,170.8l-112,112c-5.6,5.5-13,8.6-20.9,8.6c-7.9,0-15.3-3-20.9-8.6l-112-112
	c-5.5-5.6-8.6-13-8.6-20.9c0-7.9,3-15.3,8.6-20.9l112-112c5.6-5.5,13-8.6,20.9-8.6c7.9,0,15.4,3.1,20.9,8.6l112,112
	C912.9,140.5,912.9,159.3,901.4,170.8z"/>
<path opacity="2.000000e-02" fill="#243038" d="M791.2,61.2c-6.1-6.1-14.1-9.4-22.8-9.4s-16.7,3.3-22.8,9.4l-66,66
	c-6.1,6.1-9.4,14.2-9.4,22.8c0,8.7,3.3,16.7,9.4,22.8l66,66c6.1,6.1,14.2,9.4,22.8,9.4c8.6,0,16.7-3.3,22.8-9.5l66-66
	c12.6-12.5,12.6-32.9,0-45.5L791.2,61.2z M855.6,171.2l-66,66c-5.6,5.7-13.2,8.8-21.2,8.8s-15.6-3.2-21.2-8.8l-66-66
	c-5.7-5.6-8.8-13.2-8.8-21.2s3.2-15.6,8.8-21.2l66-66c5.6-5.7,13.2-8.8,21.2-8.8c8.1,0,15.6,3.1,21.2,8.7l66,66
	C867.3,140.5,867.3,159.5,855.6,171.2z"/>
<path opacity="2.000000e-02" fill="#243038" d="M790.9,100.2c-6-6-14-9.3-22.5-9.3c-8.5,0-16.5,3.3-22.5,9.3l-27.3,27.3
	c-6,6-9.3,14-9.3,22.5s3.3,16.5,9.3,22.5l27.3,27.3c6,6,14,9.3,22.5,9.3c8.5,0,16.5-3.3,22.5-9.3l27.3-27.3
	c12.4-12.4,12.4-32.6,0-45L790.9,100.2z M817.2,171.6l-27.3,27.3c-5.7,5.8-13.4,8.9-21.5,8.9s-15.8-3.2-21.5-8.9l-27.3-27.3
	c-5.8-5.7-8.9-13.4-8.9-21.5s3.2-15.8,8.9-21.5l27.3-27.3c5.7-5.8,13.4-8.9,21.5-8.9c8.2,0,15.8,3.1,21.5,8.9l27.3,27.3
	C829,140.5,829,159.7,817.2,171.6z"/>
<path opacity="2.000000e-02" fill="#243038" d="M768.4,118.5c-8.4,0-16.4,3.3-22.3,9.2c-5.9,5.9-9.2,13.9-9.2,22.3
	c0,8.4,3.3,16.4,9.2,22.3c5.9,5.9,13.8,9.2,22.3,9.2c8.5,0,16.4-3.3,22.3-9.2c12.3-12.3,12.3-32.3,0-44.6
	C784.8,121.8,776.9,118.5,768.4,118.5z M790.1,171.7c-5.8,5.7-13.5,8.9-21.7,8.9s-15.9-3.1-21.7-8.9c-5.7-5.8-8.9-13.5-8.9-21.7
	c0-8.2,3.1-15.9,8.9-21.7c5.8-5.7,13.5-8.9,21.7-8.9s15.9,3.1,21.7,8.9C802.1,140.3,802.1,159.7,790.1,171.7z"/>
<path opacity="2.000000e-02" fill="#243038" d="M1314.7,15c-6.1-6.1-14.3-9.5-23.1-9.5s-17,3.4-23.1,9.5l-112,112
	c-6.1,6.1-9.5,14.3-9.5,23.1c0,8.8,3.4,17,9.5,23.1l112,112c6.1,6.1,14.3,9.5,23.1,9.5s17-3.4,23.1-9.5l112-112
	c12.7-12.7,12.7-33.5,0-46.2L1314.7,15z M1424.5,170.8l-112,112c-5.6,5.5-13,8.6-20.9,8.6s-15.3-3-20.9-8.6l-112-112
	c-5.5-5.6-8.6-13-8.6-20.9c0-7.9,3-15.3,8.6-20.9l112-112c5.6-5.5,13-8.6,20.9-8.6s15.4,3.1,20.9,8.6l112,112
	C1436,140.5,1436,159.3,1424.5,170.8z"/>
<path opacity="2.000000e-02" fill="#243038" d="M1314.4,61.2c-6.1-6.1-14.1-9.4-22.8-9.4s-16.7,3.3-22.8,9.4l-66,66
	c-6.1,6.1-9.4,14.2-9.4,22.8c0,8.7,3.3,16.7,9.4,22.8l66,66c6.1,6.1,14.2,9.4,22.8,9.4s16.7-3.3,22.8-9.5l66-66
	c12.6-12.5,12.6-32.9,0-45.5L1314.4,61.2z M1378.8,171.2l-66,66c-5.6,5.7-13.2,8.8-21.2,8.8s-15.6-3.2-21.2-8.8l-66-66
	c-5.7-5.6-8.8-13.2-8.8-21.2s3.2-15.6,8.8-21.2l66-66c5.6-5.7,13.2-8.8,21.2-8.8c8.1,0,15.6,3.1,21.2,8.7l66,66
	C1390.5,140.5,1390.5,159.5,1378.8,171.2z"/>
<path opacity="2.000000e-02" fill="#243038" d="M1314.1,100.2c-6-6-14-9.3-22.5-9.3s-16.5,3.3-22.5,9.3l-27.3,27.3
	c-6,6-9.3,14-9.3,22.5s3.3,16.5,9.3,22.5l27.3,27.3c6,6,14,9.3,22.5,9.3s16.5-3.3,22.5-9.3l27.3-27.3c12.4-12.4,12.4-32.6,0-45
	L1314.1,100.2z M1340.4,171.6l-27.3,27.3c-5.7,5.8-13.4,8.9-21.5,8.9s-15.8-3.2-21.5-8.9l-27.3-27.3c-5.8-5.7-8.9-13.4-8.9-21.5
	s3.2-15.8,8.9-21.5l27.3-27.3c5.7-5.8,13.4-8.9,21.5-8.9c8.2,0,15.8,3.1,21.5,8.9l27.3,27.3C1352.2,140.5,1352.2,159.7,1340.4,171.6
	z"/>
<path opacity="2.000000e-02" fill="#243038" d="M1291.6,118.5c-8.4,0-16.4,3.3-22.3,9.2c-5.9,5.9-9.2,13.9-9.2,22.3
	c0,8.4,3.3,16.4,9.2,22.3c5.9,5.9,13.8,9.2,22.3,9.2s16.4-3.3,22.3-9.2c12.3-12.3,12.3-32.3,0-44.6
	C1308,121.8,1300.1,118.5,1291.6,118.5z M1313.3,171.7c-5.8,5.7-13.5,8.9-21.7,8.9s-15.9-3.1-21.7-8.9c-5.7-5.8-8.9-13.5-8.9-21.7
	c0-8.2,3.1-15.9,8.9-21.7c5.8-5.7,13.5-8.9,21.7-8.9s15.9,3.1,21.7,8.9C1325.3,140.3,1325.3,159.7,1313.3,171.7z"/>
<path opacity="2.000000e-02" fill="#243038" d="M268.3,15c-6.1-6.1-14.3-9.5-23.1-9.5s-17,3.4-23.1,9.5l-112,112
	c-6.1,6.1-9.5,14.3-9.5,23.1c0,8.8,3.4,17,9.5,23.1l112,112c6.1,6.1,14.3,9.5,23.1,9.5s17-3.4,23.1-9.5l112-112
	c12.7-12.7,12.7-33.5,0-46.2L268.3,15z M378.2,170.8l-112,112c-5.6,5.5-13,8.6-20.9,8.6s-15.3-3-20.9-8.6l-112-112
	c-5.5-5.6-8.6-13-8.6-20.9c0-7.9,3-15.3,8.6-20.9l112-112c5.6-5.5,13-8.6,20.9-8.6s15.4,3.1,20.9,8.6l112,112
	C389.7,140.5,389.7,159.3,378.2,170.8z"/>
<path opacity="2.000000e-02" fill="#243038" d="M268,61.2c-6.1-6.1-14.1-9.4-22.8-9.4c-8.7,0-16.7,3.3-22.8,9.4l-66,66
	c-6.1,6.1-9.4,14.2-9.4,22.8c0,8.7,3.3,16.7,9.4,22.8l66,66c6.1,6.1,14.2,9.4,22.8,9.4s16.7-3.3,22.8-9.5l66-66
	c12.6-12.5,12.6-32.9,0-45.5L268,61.2z M332.5,171.2l-66,66c-5.6,5.7-13.2,8.8-21.2,8.8s-15.6-3.2-21.2-8.8l-66-66
	c-5.7-5.6-8.8-13.2-8.8-21.2s3.2-15.6,8.8-21.2l66-66c5.6-5.7,13.2-8.8,21.2-8.8c8.1,0,15.6,3.1,21.2,8.7l66,66
	C344.2,140.5,344.2,159.5,332.5,171.2z"/>
<path opacity="2.000000e-02" fill="#243038" d="M267.7,100.2c-6-6-14-9.3-22.5-9.3s-16.5,3.3-22.5,9.3l-27.3,27.3
	c-6,6-9.3,14-9.3,22.5s3.3,16.5,9.3,22.5l27.3,27.3c6,6,14,9.3,22.5,9.3s16.5-3.3,22.5-9.3l27.3-27.3c12.4-12.4,12.4-32.6,0-45
	L267.7,100.2z M294.1,171.6l-27.3,27.3c-5.7,5.8-13.4,8.9-21.5,8.9s-15.8-3.2-21.5-8.9l-27.3-27.3c-5.8-5.7-8.9-13.4-8.9-21.5
	s3.2-15.8,8.9-21.5l27.3-27.3c5.7-5.8,13.4-8.9,21.5-8.9c8.2,0,15.8,3.1,21.5,8.9l27.3,27.3C305.9,140.5,305.9,159.7,294.1,171.6z"
	/>
<path opacity="2.000000e-02" fill="#243038" d="M245.2,118.5c-8.4,0-16.4,3.3-22.3,9.2c-5.9,5.9-9.2,13.9-9.2,22.3
	c0,8.4,3.3,16.4,9.2,22.3c5.9,5.9,13.8,9.2,22.3,9.2s16.4-3.3,22.3-9.2c12.3-12.3,12.3-32.3,0-44.6
	C261.6,121.8,253.7,118.5,245.2,118.5z M266.9,171.7c-5.8,5.7-13.5,8.9-21.7,8.9s-15.9-3.1-21.7-8.9c-5.7-5.8-8.9-13.5-8.9-21.7
	c0-8.2,3.1-15.9,8.9-21.7c5.8-5.7,13.5-8.9,21.7-8.9s15.9,3.1,21.7,8.9C278.9,140.3,278.9,159.7,266.9,171.7z"/>
<path opacity="2.000000e-02" fill="#243038" d="M490.1,150c0,7.7-2.9,14.8-8.3,20.2L352,300h7.2l126.2-126.3
	c6.3-6.3,9.8-14.8,9.8-23.8c0-9-3.5-17.5-9.8-23.8L359.3,0H352l129.8,129.8C487.1,135.2,490.1,142.4,490.1,150z"/>
<path opacity="2.000000e-02" fill="#243038" d="M131.2,300h7.3L8.7,170.2C-2.5,159-2.5,141,8.7,129.8L138.5,0h-7.3L5,126.1
	c-13.1,13.2-13.1,34.6,0,47.7L131.2,300z"/>
<path opacity="2.000000e-02" fill="#243038" d="M190,300h5.6L66.2,170.5c-11.3-11.3-11.3-29.8,0-41.1L195.6,0h-5.7L63.4,126.5
	c-12.9,13-12.9,34,0,46.9L190,300z"/>
<path opacity="2.000000e-02" fill="#243038" d="M424.3,170.6L294.9,300h5.7l126.6-126.6c12.9-13,12.9-34,0-46.9L300.6,0h-5.7
	l129.5,129.5C435.6,140.8,435.6,159.3,424.3,170.6z"/>
<g opacity="2.000000e-02">
	<path fill="#243038" d="M1470.7,129.5c11.3,11.3,11.3,29.8,0,41.1L1341.2,300h5.7l126.6-126.6c12.9-13,12.9-34,0-46.9L1346.9,0
		h-5.7L1470.7,129.5z"/>
	<path fill="#243038" d="M1109.7,173.4L1236.4,300h5.6l-129.5-129.5c-11.3-11.3-11.3-29.8,0-41.1L1242,0h-5.7l-126.5,126.5
		C1096.8,139.5,1096.8,160.5,1109.7,173.4z"/>
</g>
<g opacity="2.000000e-02">
	<path fill="#243038" d="M1051.4,173.8L1177.6,300h7.3L1055,170.2c-11.1-11.2-11.1-29.2,0-40.4L1184.9,0h-7.3l-126.1,126.1
		C1038.3,139.3,1038.3,160.7,1051.4,173.8z"/>
	<path fill="#243038" d="M1528.2,129.8c5.3,5.4,8.3,12.6,8.3,20.2c0,7.7-2.9,14.8-8.3,20.2L1398.3,300h7.2l126.2-126.3
		c3.8-3.8,6.6-8.5,8.2-13.6v-20.5c-1.6-5.1-4.4-9.7-8.2-13.6L1405.6,0h-7.3L1528.2,129.8z"/>
</g>
<g opacity="2.000000e-02">
	<path fill="#243038" d="M947.5,129.5c11.3,11.3,11.3,29.8,0,41.1L818,300h5.7l126.6-126.6c12.9-13,12.9-34,0-46.9L823.7,0H818
		L947.5,129.5z"/>
	<path fill="#243038" d="M586.5,173.4L713.2,300h5.6L589.3,170.5c-11.3-11.3-11.3-29.8,0-41.1L718.8,0h-5.7L586.5,126.5
		C573.6,139.5,573.6,160.5,586.5,173.4z"/>
</g>
<g opacity="2.000000e-02">
	<path fill="#243038" d="M1005,129.8c5.3,5.4,8.3,12.6,8.3,20.2c0,7.7-2.9,14.8-8.3,20.2L875.1,300h7.2l126.2-126.3
		c6.3-6.3,9.8-14.8,9.8-23.8c0-9-3.5-17.5-9.8-23.8L882.5,0h-7.3L1005,129.8z"/>
	<path fill="#243038" d="M528.2,173.8L654.4,300h7.3L531.8,170.2c-11.1-11.2-11.1-29.2,0-40.4L661.7,0h-7.3L528.2,126.1
		C515.1,139.3,515.1,160.7,528.2,173.8z"/>
</g>
<path opacity="2.000000e-02" fill="#243038" d="M1497.9,300h5.7l30.6-30.6c1.8-1.8,3.7-3.3,5.8-4.5v-4.6c-3.2,1.6-6.1,3.7-8.6,6.2
	L1497.9,300z"/>
<path opacity="2.000000e-02" fill="#243038" d="M1439.1,300h7.3l88.1-88.1c1.7-1.6,3.5-3,5.4-4.2v-5.9c-3.3,1.6-6.4,3.8-9,6.4
	L1439.1,300z"/>
<path opacity="2.000000e-02" fill="#243038" d="M1031.6,198.4c-9,0-17.5,3.5-23.8,9.8L916,300h7.3l88.1-88.1
	c5.4-5.3,12.6-8.3,20.2-8.3c7.7,0,14.8,2.9,20.2,8.3l88.1,88.1h7.3l-91.8-91.8C1049.1,201.9,1040.6,198.4,1031.6,198.4z"/>
<path opacity="2.000000e-02" fill="#243038" d="M1031.6,256.8c-8.8,0-17.2,3.5-23.4,9.7L974.7,300h5.7l30.6-30.6
	c5.5-5.5,12.8-8.5,20.6-8.5s15.1,3,20.6,8.5l30.6,30.6h5.7l-33.5-33.5C1048.8,260.2,1040.5,256.8,1031.6,256.8z"/>
<path opacity="2.000000e-02" fill="#243038" d="M508.4,198.4c-9,0-17.5,3.5-23.8,9.8L392.8,300h7.3l88.1-88.1
	c5.4-5.3,12.6-8.3,20.2-8.3c7.7,0,14.8,2.9,20.2,8.3l88.1,88.1h7.3l-91.8-91.8C525.9,201.9,517.4,198.4,508.4,198.4z"/>
<path opacity="2.000000e-02" fill="#243038" d="M508.4,256.8c-8.8,0-17.2,3.5-23.4,9.7L451.5,300h5.7l30.6-30.6
	c5.5-5.5,12.8-8.5,20.6-8.5c7.8,0,15.1,3,20.6,8.5l30.6,30.6h5.7l-33.5-33.5C525.6,260.2,517.3,256.8,508.4,256.8z"/>
<path opacity="2.000000e-02" fill="#243038" d="M5.5,211.9L93.6,300h7.3L9.1,208.2c-2.7-2.7-5.7-4.8-9.1-6.4v5.9
	C2,208.8,3.8,210.2,5.5,211.9z"/>
<path opacity="2.000000e-02" fill="#243038" d="M5.9,269.4L36.4,300h5.7L8.7,266.5c-2.6-2.6-5.5-4.7-8.7-6.3v4.7
	C2.1,266.1,4.1,267.6,5.9,269.4z"/>
<path opacity="2.000000e-02" fill="#243038" d="M1540,39.7v-4.6c-2.1-1.2-4.1-2.7-5.8-4.5L1503.6,0h-5.6l33.4,33.4
	C1533.9,36,1536.8,38.1,1540,39.7z"/>
<path opacity="2.000000e-02" fill="#243038" d="M1540,98.2v-5.9c-1.9-1.2-3.8-2.6-5.4-4.3L1446.4,0h-7.3l91.8,91.8
	C1533.6,94.5,1536.7,96.6,1540,98.2z"/>
<path opacity="2.000000e-02" fill="#243038" d="M1031.6,43.1c8.9,0,17.2-3.4,23.4-9.6L1088.5,0h-5.7l-30.6,30.6
	c-5.5,5.5-12.8,8.5-20.6,8.5s-15.1-3-20.6-8.5L980.4,0h-5.6l33.4,33.4C1014.4,39.7,1022.7,43.1,1031.6,43.1z"/>
<path opacity="2.000000e-02" fill="#243038" d="M1031.6,101.6c9,0,17.5-3.5,23.8-9.8L1147.2,0h-7.2l-88.1,88.1
	c-5.4,5.3-12.5,8.3-20.2,8.3s-14.8-2.9-20.2-8.3L923.3,0H916l91.8,91.8C1014.1,98.1,1022.6,101.6,1031.6,101.6z"/>
<path opacity="2.000000e-02" fill="#243038" d="M508.4,101.6c9,0,17.5-3.5,23.8-9.8L624,0h-7.2l-88.1,88.1
	c-5.4,5.3-12.5,8.3-20.2,8.3s-14.8-2.9-20.2-8.3L400.1,0h-7.3l91.8,91.8C490.9,98.1,499.4,101.6,508.4,101.6z"/>
<path opacity="2.000000e-02" fill="#243038" d="M508.4,43.1c8.9,0,17.2-3.4,23.4-9.6L565.3,0h-5.7L529,30.6
	c-5.5,5.5-12.8,8.5-20.6,8.5c-7.8,0-15.1-3-20.6-8.5L457.2,0h-5.6L485,33.4C491.2,39.7,499.5,43.1,508.4,43.1z"/>
<path opacity="2.000000e-02" fill="#243038" d="M5.5,88.1c-1.7,1.6-3.5,3-5.5,4.2v5.9c3.3-1.6,6.4-3.8,9.1-6.4L100.8,0h-7.2
	L5.5,88.1z"/>
<path opacity="2.000000e-02" fill="#243038" d="M5.9,30.6c-1.8,1.8-3.7,3.3-5.9,4.5v4.6c3.2-1.6,6.1-3.6,8.7-6.2L42.1,0h-5.7
	L5.9,30.6z"/>
</svg>
